<svg width="150" height="150" viewBox="0 0 96 96" xmlns="http://www.w3.org/2000/svg"><path fill="#0088D5" d="M40.7 85H24.5c-.4 0-.8.1-1.1-.2 6.6-1.2 13.2-2.3 19.8-3.5 7.7-1.4 15.4-2.7 23.1-4.1.3 0 .5-.1.9-.2-1.7-2.1-3.4-4-5.1-6-5.9-7.1-11.9-14-17.6-21.1-.3-.4-.5-.7-.3-1.3 3.9-10.7 7.8-21.4 11.7-32.2 0-.1.1-.2.2-.4l.6.9c13 22.5 26 45 39 67.4.1.2.2.4.3.7H40.7zm12-74c-1.1 2.4-2.2 4.7-3.2 7-9 19.4-18.1 38.8-27.1 58.1-.2.4-.3.8-1 .8H0c0-.4.3-.6.4-.9C8.2 62.4 16 48.9 23.8 35.3c.3-.6.7-1 1.2-1.4 8.7-7.3 17.5-14.6 26.2-22 .4-.3.8-.7 1.5-.9z"/></svg>