<svg width="150" height="150" viewBox="0 0 96 96" xmlns="http://www.w3.org/2000/svg"><path fill="#4284F3" d="M72.9 18.9c1.9 1.6 3.6 3.5 5.1 5.4 2.8 3.7 4.9 7.9 6.2 12.4.1.3.2.5.5.7 5.8 4.3 9.6 9.9 10.9 17 1.5 8.1-.3 15.5-5.4 21.9-4.3 5.4-10 8.7-16.8 9.9-1.2.2-2.5.3-3.7.3H48.2c-.2-.2-.2-.4-.2-.7V70.5c0-.2 0-.4.1-.6.1-.2.3-.2.5-.2h20.3c4.8 0 8.4-2.9 9.8-6.7 1.3-3.7.7-7.1-1.7-10.1-1.9-2.3-4.4-3.5-7.3-3.7-.6-.1-.7-.1-.7-.8 0-2-.1-3.9-.5-5.9-.7-3.4-2.3-6.4-4.5-9.1-.8-1-1.8-1.8-2.7-2.6-.1-.3.2-.5.4-.6l9.9-9.9 1.1-1.1c-.1-.1 0-.3.2-.3z"/><path fill="#FABB05" d="M10.8 81.1c-2.4-1.7-4.4-3.9-6-6.3C1.3 69.7-.3 64.1.1 58c.5-8.5 4.4-15.4 11.2-20.5.2-.1.4-.3.5-.4.1-.2.4-.4.6-.5 3.4-2.2 7.1-3.5 11-4.1 3.1-.4 6.1-.3 9.2.3 2.5.6 4.9 1.4 7.1 2.6 2.3 1.2 4.4 2.7 6.2 4.5.9.9 1.8 1.8 2.5 2.8.4.5.4.7-.1 1.1L37.1 55c-.5.5-.6.5-1-.1-1.8-3.1-4.4-5-8-5.4-2.9-.4-5.5.5-7.8 2.4-2.1 1.8-3.3 4-3.5 6.7-.4 4.6 1.6 7.9 5.5 10.2.2.1.4.2.5.3.1.3-.1.4-.3.5-3.7 3.6-7.5 7.4-11.2 11.2-.2.1-.3.3-.5.3z"/><path fill="#E94335" d="M32.7 32.9c-2.2-.4-4.4-.6-6.6-.5-3.4.1-6.6.9-9.7 2.2-1.6.7-3.2 1.6-4.6 2.5.5-2.1 1.3-4.1 2.2-6.1 5.6-11.2 14.5-18.4 26.8-20.8 12-2.3 22.7.7 32 8.6l.1.1-11.8 11.8c-.2.1-.4-.1-.5-.2-3-2.3-6.3-3.6-10.1-4.1-3.3-.4-6.4 0-9.5 1.1-3 1.1-5.5 2.8-7.7 5-.3.2-.4.3-.6.4z"/><path fill="#34A753" d="M10.8 81.1l11.7-11.7.4-.4c.2-.2.4 0 .6 0 1.3.5 2.7.7 4.1.7h19.5c.3 0 .7-.1.9.2v16.7H26.7c-5.8-.1-11-1.9-15.7-5.3l-.2-.2z"/></svg>