<svg width="150" height="150" viewBox="0 0 96 96" xmlns="http://www.w3.org/2000/svg"><path fill="#016379" d="M46.7 95.7C22.7 95.3-1.5 85.3.1 69c2.4 9.7 21.5 19.9 45.5 20.2 24 .3 43.5-6.8 50.3-18.8 1.8 15.2-24.4 25.3-48 25.3h-1.2zm1.7-33.4c.1-12.8-18.7-15.6-18.6-28.9 0-13.4 14.9-16.5 14.9-16.5s-9.9 3.7-10.1 12.5c-.3 12 20.3 18 20.4 28.7.1 9.8-10.3 13.9-10.3 13.9s3.6-2.1 3.7-9.7zm9.4-8.1c-.7-1.3-2.5-3.9-3.7-5.6 27.4 2.5 34 11.2 34 16.2S85 71 85 71s5.8-12.5-27.2-16.8zM7.9 64.5c.6-3 2.1-10.9 26.7-15.5 3.1 1.9 5.6 4.9 5.6 4.9s-31 3-29.5 16.8c-1.4-1.4-3.3-3.2-2.8-6.2zm30.9-35.4c.1-7.4 11.9-11.6 11.7-20-.1-6.2-5.8-8.7-5.8-8.7s8.5 2.2 8.5 11.5S42.6 23 42.6 32c0 5.3 2.1 6.8 2.1 6.8s-6-2.9-5.9-9.7z"/></svg>