<svg version="1.0" xmlns="http://www.w3.org/2000/svg" width="2178.667" height="2178.667" viewBox="0 0 1634 1634"><path d="M1613.6 229.5c-10.9 6.9-20.3 12.5-20.7 12.5-.5 0-.9.4-.9 1 0 .5-.4 1-.9 1-.7 0-97.2 59.3-114.6 70.5-2.7 1.7-13.3 8.3-23.5 14.5-37 22.8-53.5 33-55 34-5.3 3.6-37.4 23-38.1 23-.5 0-.9.4-.9 1 0 .5-.7 1-1.5 1s-1.5.4-1.5.9-.8 1.1-1.7 1.5c-1 .3-3.8 1.9-6.3 3.5-2.5 1.7-5.6 3.6-7 4.4-1.4.8-20 12.3-41.5 25.7-21.4 13.3-40.4 25.1-42.2 26.1-1.7 1-5.6 3.3-8.5 5.2-2.9 1.9-9.6 6-14.8 9.2-5.2 3.2-11.7 7.3-14.5 9-4.5 2.9-27.8 17.4-31.5 19.6-.8.5-6.9 4.2-13.5 8.3-6.6 4.1-19.9 12.3-29.5 18.1-9.6 5.9-19.7 12.2-22.5 14-4.5 2.9-16.9 10.6-25.9 16-1.8 1.1-11.2 6.9-21 13-20.8 12.9-33.1 20.5-36.6 22.5-1.4.8-2.7 1.7-3 2-.3.3-3.4 2.3-7 4.4-3.6 2.2-8.7 5.4-11.5 7.1-2.7 1.8-45.3 28.1-94.5 58.5-49.2 30.3-92.4 57.1-96 59.5-9 5.8-10 6-14.4 3-2-1.4-3.9-2.5-4.1-2.5-.2 0-10.5-6.3-22.8-14-12.4-7.6-29.4-18.1-37.8-23.3-25.5-15.6-68.1-41.8-72.9-44.9-4.3-2.7-14.3-8.8-35-21.5-5.2-3.2-10.3-6.2-11.2-6.8-5.9-3.5-16.4-10-16.8-10.5-.3-.3-1.4-1-2.5-1.6-2.7-1.5-59.1-36-63.5-38.9-4-2.6-83.1-51.3-87-53.6-1.4-.7-2.7-1.6-3-1.9-.3-.3-1.7-1.2-3.2-2-1.5-.8-7-4.2-12.3-7.5-5.3-3.3-10.8-6.7-12.3-7.6-1.5-.9-7.9-4.8-14.2-8.7-9.6-6-22.7-14-34.5-21.2-1.4-.8-11.6-7.1-22.7-14s-26.8-16.6-34.9-21.5c-8.1-5-39.5-24.3-69.8-43-30.3-18.7-56.4-34.7-57.9-35.6-4.9-2.9-84.6-52-88.2-54.4-3.7-2.3-50-30.8-54.7-33.6-1.6-.9-13.1-8.1-25.8-15.9-12.6-7.8-23.6-14.4-24.2-14.7-1-.4-1.3 30.9-1.3 154.5v155.1l5.6 3.3c3.1 1.8 6.3 3.7 7.3 4.3 2.6 1.6 20.2 12.5 24.1 15 3 2 87 54 94.2 58.4 10.2 6.2 28.5 17.5 98.8 61.1 43.7 27.1 80.7 50 82.2 50.9 2.6 1.5 19.1 11.8 24.6 15.3 1.5.9 3.8 2.3 5.2 3.1 1.4.8 20.1 12.3 41.5 25.7 21.5 13.3 40.4 25 42 26 1.7.9 11.6 7.1 22.1 13.7 10.5 6.6 19.8 12.3 20.5 12.7.8.3 4.4 2.6 8.1 4.9 3.7 2.3 10.7 6.6 15.5 9.6 4.9 3 11.1 6.9 13.8 8.6 2.8 1.8 15.8 9.9 29 18s31.6 19.6 41 25.4c9.3 5.8 17.9 11.1 19 11.7 2 1.1 63.8 39.4 76.5 47.4 3.6 2.2 12.4 7.6 19.5 12 7.2 4.3 13.5 8.4 14.2 8.9.7.6 1.4 1.1 1.7 1.1.3 0 4.9 2.8 10.3 6.2 5.4 3.4 10.9 6.8 12.3 7.7 1.4.9 3.4 2.1 4.5 2.7 1.1.6 12.4 7.6 25 15.4 42.7 26.6 47 29.3 52.8 32.7 3.2 1.9 6.3 3.1 7 2.7.6-.4 11.8-7.3 24.7-15.3 12.9-7.9 26.4-16.3 30-18.5 3.6-2.1 14.8-9.1 25-15.4 10.2-6.3 19.7-12.2 21.2-13.1 5.3-3.2 28.4-17.5 33.3-20.6 6.2-4 47-29.2 50.7-31.4 3.4-2 33.2-20.6 39.1-24.3 2.3-1.5 5.1-3.2 6.2-3.8 1.1-.6 3.4-1.9 5-3 1.7-1.1 3.7-2.3 4.5-2.7.8-.4 2-1.1 2.5-1.6.6-.4 9.1-5.8 19-11.9 9.9-6 21.3-13.1 25.4-15.6 4.1-2.6 8.9-5.6 10.7-6.7 1.9-1.1 12-7.4 22.6-13.9 32.2-20 71.8-44.5 81.3-50.3 5-3.1 11.3-7 14-8.7 2.8-1.7 5.9-3.6 7-4.3 1.1-.6 12.3-7.6 25-15.5 12.6-7.9 23.8-14.8 24.7-15.3 1.8-1 49-30.2 57.3-35.4 2.2-1.4 9.6-6 16.5-10.2l12.5-7.7.3 363.9.2 363.9h257V817c0-330-.1-600-.2-600-.2 0-9.3 5.7-20.2 12.5zM.1 1021.9L0 1417h262v-319.9l30.5 19.2c16.8 10.6 42.1 26.5 56.3 35.4 24.6 15.5 59.4 37.4 81.5 51.3 10.9 6.8 19.3 12.1 31.7 20 4.1 2.7 21.7 13.7 39 24.6 17.3 10.8 34.2 21.4 37.5 23.5 3.3 2.1 9.8 6.2 14.5 9.2 4.7 3 11.3 7.1 14.8 9.3 3.4 2.1 8.4 5.3 11 6.9 7.8 5 106 66.8 109.6 69 1.8 1.1 9.8 6.1 17.7 11.1 7.9 5 25.6 16.2 39.2 24.8l24.9 15.6 253.1-.2c225.7-.3 252.9-.5 250.5-1.8-2.5-1.4-50-30.8-60-37.2-2.4-1.5-5.8-3.5-7.6-4.5-1.8-1-9.6-5.8-17.5-10.7-7.8-4.9-22.5-14.1-32.7-20.4-10.2-6.3-20.1-12.4-22-13.7-5.9-3.7-14.3-8.9-17.1-10.5-1.4-.8-45.8-28.2-98.5-60.9-52.8-32.7-101.7-63-108.9-67.4-7.1-4.4-15.2-9.5-18-11.2-2.7-1.8-22.3-13.9-43.5-27-21.2-13-40.1-24.7-42-26-1.9-1.2-6.3-4-9.8-6.1-3.5-2.2-7.5-4.7-9-5.6-1.5-1-3.4-2.1-4.2-2.5-1.6-.8-39-23.9-45-27.8-3-2-34.1-21.2-52.5-32.6-3.3-2-29.4-18.2-58-35.9-28.6-17.8-52.9-32.8-54-33.4-1.1-.6-3.1-1.9-4.5-2.8-5-3.2-37.6-23.3-39.5-24.4-1.1-.6-7.2-4.4-13.5-8.4s-12.4-7.8-13.5-8.4c-2.4-1.3-27.5-16.8-32.5-20.1-1.9-1.2-30.3-18.8-63-39s-61.1-37.7-63-39c-3.8-2.5-60.6-37.6-65.5-40.5-3.3-1.9-60.5-37.4-72.4-44.9-4.1-2.5-8.6-5.3-10-6.1-1.4-.8-8.4-5.2-15.6-9.6-7.1-4.5-19.7-12.3-28-17.4-8.2-5.1-16.9-10.4-19.2-11.9-12.5-7.9-61.3-38.1-64.6-40-1.5-.9-17.2-10.6-34.9-21.6-17.7-11-32.5-20.1-32.9-20.3-.4-.2-.8 177.5-.8 394.7z"/></svg>