<svg xmlns="http://www.w3.org/2000/svg" viewBox="0 0 24.601 24.6"><g fill="none" stroke="currentColor" stroke-linecap="round" stroke-linejoin="round" stroke-width="2"><path d="M10 19.8a.789.789 0 01.8-.8h12a.789.789 0 01.8.8h0v3a.789.789 0 01-.8.8h-12a.789.789 0 01-.8-.8h0zm0-7.5a.789.789 0 01.8-.8h12a.789.789 0 01.8.8h0v3a.789.789 0 01-.8.8h-12a.789.789 0 01-.8-.8h0zM1 1.8a.789.789 0 01.8-.8h12a.789.789 0 01.8.8h0v3a.789.789 0 01-.8.8h-12a.789.789 0 01-.8-.8h0z"/><path d="M7 5.5V7a1.538 1.538 0 001.5 1.5H13a1.538 1.538 0 011.5 1.5v1.5m3 4.6v3"/></g></svg>