<svg xmlns="http://www.w3.org/2000/svg" viewBox="0 0 301 111"><path d="M258 111V97h-38v14h-2V97h-21v-2h21V84h2v11h38V57h-36v-2h36V17h-38v10h-2V17h-31v-2h31V0h2v15h38V0h2v15h41v2h-41v38h21v2h-21v38h11v2h-11v14h-2zm-180 0V97H40v14h-2V97h-8v-2h8V58H20v-2h18V17H0v-2h38V0h2v15h38V0h2v15h30v2H80v10h-2V17H40v39h35v2H40v37h38V84h2v11h20v2H80v14h-2zm207-10v-4h-4v-2h4v-4h2v4h4v2h-4v4h-2zM78 78v-4h-4v-2h4v-4h2v4h4v2h-4v4h-2zM4 62v-4H0v-2h4v-4h2v4h4v2H6v4H4zm214-15v-4h-4v-2h4v-4h2v4h4v2h-4v4h-2z" fill="#dbdee5"/><path d="M119.7 82.3H97.3c-1.5 0-3-.6-4.1-1.7-1.1-1.1-1.7-2.6-1.7-4.1V47.3c0-1.5.6-3 1.7-4.1 1.1-1.1 2.6-1.7 4.1-1.7h80.9m21.5 0h3.3c1.5 0 3 .6 4.1 1.7 1.1 1.1 1.7 2.6 1.7 4.1v29.2c0 1.5-.6 3-1.7 4.1-1.1 1.1-2.6 1.7-4.1 1.7h-11.2" fill="none" stroke="#dbdee5" stroke-width="2" stroke-linecap="round"/><path d="M123.2 78.5c5.2 9 14.3 17.1 29.4 22.3.7.2 1.4.2 2.1 0 38.2-13.2 37.6-44.6 37.1-67.4 0-2.5-.1-4.8-.1-7 0-.4-.1-.8-.2-1.2s-.4-.7-.7-1c-.3-.3-.6-.5-1-.7-.4-.2-.8-.2-1.2-.2-13.6 0-24-3.9-32.7-12.3-.6-.6-1.4-.9-2.2-.9s-1.6.3-2.2.9c-8.7 8.4-19 12.3-32.7 12.3-.4 0-.8.1-1.2.2-.4.2-.7.4-1 .7-.3.3-.5.6-.7 1-.2.4-.2.8-.2 1.2 0 2.2 0 5.7-.1 8.2" fill="none" stroke="#212225" stroke-width="2" stroke-linecap="round"/><path d="M133 79.9c4 4.7 10.2 9.1 19.1 12.2.5.2 1.1.2 1.6 0 29.6-10.3 29.1-34.8 28.8-52.6 0-1.9-.1-3.7-.1-5.5 0-.3-.1-.6-.2-.9-.1-.3-.3-.6-.5-.8-.2-.2-.5-.4-.8-.5-.3-.1-.6-.2-.9-.2-10.6 0-18.6-3.1-25.3-9.6-.5-.5-1.1-.7-1.7-.7s-1.3.3-1.7.7c-6.7 6.6-14.8 9.6-25.3 9.6-.3 0-.6.1-.9.2-.3.1-.6.3-.8.5-.2.2-.4.5-.5.8-.1.3-.2.6-.2.9 0 1.8 0 .9-.1 2.8" fill="none" stroke="#04958e" stroke-width="2" stroke-linecap="round"/><path d="M132.3 72.9c-.7 0-1.3-.1-1.9-.4s-1.2-.6-1.6-1.1c-.5-.5-.8-1-1.1-1.6-.3-.6-.4-1.3-.4-1.9V55.1c0-.7.1-1.3.4-1.9.3-.6.6-1.2 1.1-1.6.5-.5 1-.8 1.6-1.1.6-.2 1.3-.4 1.9-.4h8.6c.7 0 1.3.1 1.9.4s1.2.6 1.6 1.1c.5.5.8 1 1.1 1.6.3.6.4 1.3.4 1.9v12.8c0 .7-.1 1.3-.4 1.9-.3.6-.6 1.2-1.1 1.6-.5.5-1 .8-1.6 1.1s-1.3.4-1.9.4h-8.6zm24 0c-.7 0-1.3-.1-1.9-.4s-1.2-.6-1.6-1.1c-.5-.5-.8-1-1.1-1.6-.3-.6-.4-1.3-.4-1.9V55.1c0-.7.1-1.3.4-1.9.3-.6.6-1.2 1.1-1.6.5-.5 1-.8 1.6-1.1.6-.2 1.3-.4 1.9-.4h8.6c.7 0 1.3.1 1.9.4s1.2.6 1.6 1.1c.5.5.8 1 1.1 1.6.3.6.4 1.3.4 1.9v12.8c0 .7-.1 1.3-.4 1.9-.3.6-.6 1.2-1.1 1.6-.5.5-1 .8-1.6 1.1s-1.3.4-1.9.4h-8.6z" fill="none" stroke="#dbdee5" stroke-width="2"/><path d="M107.9 72.9c-.7 0-1.3-.1-1.9-.4-.6-.2-1.2-.6-1.6-1.1-.5-.5-.8-1-1.1-1.6-.3-.6-.4-1.3-.4-1.9V55.1c0-.7.1-1.3.4-1.9.3-.6.6-1.2 1.1-1.6.5-.5 1-.8 1.6-1.1.6-.2 1.3-.4 1.9-.4h8.6c.7 0 1.3.1 1.9.4.6.2 1.2.6 1.6 1.1.5.5.8 1 1.1 1.6.3.6.4 1.3.4 1.9v12.8c0 .7-.1 1.3-.4 1.9s-.6 1.2-1.1 1.6c-.5.5-1 .8-1.6 1.1-.6.2-1.3.4-1.9.4h-8.6z" fill="#ddf5f4" stroke="#04958e" stroke-width="2"/><path d="M116.4 57.8l-5.4 7.6-.3.3c-.1.1-.2.1-.4.1-.1 0-.2 0-.4-.1-.1-.1-.2-.1-.3-.2l-1.4-1.8" fill="none" stroke="#04958e" stroke-width="2" stroke-linecap="round" stroke-linejoin="round"/></svg>