<svg xmlns="http://www.w3.org/2000/svg" viewBox="0 0 298 163"><style>.st2,.st3{fill:#ddf5f4}.st3,.st4{stroke:#00b2aa}.st3,.st4,.st5{stroke-width:2;stroke-linecap:round;stroke-linejoin:round}.st4,.st5{fill:none}.st5{stroke:#212225}</style><path d="M266 163v-15h-38v8h-2v-8h-13v-2h13v-9h2v9h38v-38h-21v-2h21v-4h2v4h21v2h-21v38h30v2h-30v15h-2zm17-86v-4h-4v-2h4v-4h2v4h4v2h-4v4h-2zM95 158v-21H57v6h-2v-6H17v15h-2v-15H0v-2h15V97H7v-2h8V57H2v-2h13V37h2v18h7v2h-7v38h9v2h-9v38h38v-11h2v11h38v-3h2v3h14v2H97v21h-2zM39 61v-4h-4v-2h4v-4h2v4h4v2h-4v4h-2zm227 24V73h-7v-2h7V33h-38v11h-2V33h-14v-2h14V20h2v11h38V10h2v21h5v2h-5v38h3v2h-3v12h-2zm-40-75V6h-4V4h4V0h2v4h4v2h-4v4h-2z" fill="#dbdee5"/><path d="M114.1 125H67c-4.9 0-9-4.5-9-10V65c0-5.5 4-10 9-10h16" fill="none" stroke="#00b2aa" stroke-width="2" stroke-linecap="round"/><path class="st2" d="M126.6 97.8h-21.1c-9.4 0-18.1-4.7-18.1-17.4 1.7 7.2 7.8 12.5 15.1 13.4h24.1v4z"/><path class="st2" d="M123 96h4v29h-4zm-.3-33.2s-10.6-.2-20-.2c-2.4.1-4.8.8-6.8 2.2-4.8-2.3-8.5-7.1-8.5-15.4 3.2 12.5 12.7 12.5 12.7 12.5l26.4.9h-3.8z"/><path class="st3" d="M105.202 41.5c-2.8 0-5 2.2-5 5s2.2 5 5 5 5-2.2 5-5-2.2-5-5-5"/><path class="st4" d="M134.602 46.4h12m6.6 0h12"/><path class="st3" d="M105.202 72.9c-2.8 0-5 2.2-5 5s2.2 5 5 5 5-2.2 5-5-2.2-5-5-5"/><path class="st4" d="M134.602 77.8h12m-39.4 47.1h19.6V93.5m54.9-47.1c0 8.7-7 15.7-15.7 15.7h-62.8c-8.7 0-15.7-7-15.7-15.7s7-15.7 15.7-15.7h62.8c8.7 0 15.7 7.1 15.7 15.7z"/><path class="st4" d="M134.502 93.5h-31.3c-8.7 0-15.7-7-15.7-15.7s7-15.7 15.7-15.7h62.8c5.6 0 10.8 3 13.6 7.8"/><path class="st3" d="M120.202 41.5c-2.8 0-5 2.2-5 5s2.2 5 5 5 5-2.2 5-5-2.2-5-5-5m0 31.4c-2.8 0-5 2.2-5 5s2.2 5 5 5 5-2.2 5-5-2.2-5-5-5"/><path class="st5" d="M173.9 148.4c17.3 0 31.4-14.1 31.4-31.4s-14.1-31.4-31.4-31.4c-17.3 0-31.4 14.1-31.4 31.4 0 17.4 14 31.4 31.4 31.4zm-.2-44.4v26.6"/><path class="st5" d="M163.8 120.6l10 10 10-10"/><path d="M189.5 55h31.3c4.9 0 9 4.5 9 10v50c0 5.5-4 10-9 10h-7.7" fill="none" stroke="#dbdee5" stroke-width="2" stroke-linecap="round"/></svg>