<svg xmlns="http://www.w3.org/2000/svg" viewBox="0 0 412 163"><path d="M405 163v-15h-38v15h-2v-15h-38v8h-2v-8h-38v13h-2v-13h-18v-2h18v-7h2v7h38v-9h2v9h38v-38h-21v-2h21v-4h2v4h36v2h-36v38h38v-10h2v10h5v2h-5v15h-2zm0-37v-4h-4v-2h4v-4h2v4h4v2h-4v4h-2zM95 158v-21H57v6h-2v-6H17v15h-2v-15H0v-2h15V97H7v-2h8V57H2v-2h13V37h2v18h7v2h-7v38h9v2h-9v38h38v-11h2v11h38v-3h2v3h14v2H97v21h-2zM39 61v-4h-4v-2h4v-4h2v4h4v2h-4v4h-2zm326 24V73h-7v-2h7V33h-38v11h-2V33h-14v-2h14V20h2v11h38V10h2v21h5v2h-5v38h3v2h-3v12h-2zm-40-75V6h-4V4h4V0h2v4h4v2h-4v4h-2z" fill="#dbdee5"/><path d="M236.4 101h-1c-1.1 0-2-.9-2-2v-4.6l-4.1 2.4c-.3.2-.6.2-.9.2-.6 0-1.2-.3-1.5-.9l-.8-1.3c-.5-.8-.2-1.9.6-2.4l4.1-2.4-4.1-2.4c-.8-.5-1.1-1.6-.6-2.4l.8-1.3c.3-.5.9-.9 1.5-.9.3 0 .6.1.9.2l4.1 2.4V81c0-1.1.9-2 2-2h1c1.1 0 2 .9 2 2v4.6l4.1-2.4c.3-.2.6-.2.9-.2.6 0 1.2.3 1.5.9l.8 1.3c.5.8.2 1.9-.6 2.4L241 90l4.1 2.4c.8.5 1.1 1.6.6 2.4l-.8 1.3c-.3.5-.9.9-1.5.9-.3 0-.6-.1-.9-.2l-4.1-2.4V99c0 1.1-.9 2-2 2zm-36.3 0h-1c-1.1 0-2-.9-2-2v-4.6l-4.1 2.4c-.3.2-.6.2-.9.2-.6 0-1.2-.3-1.5-.9l-.8-1.3c-.5-.8-.2-1.9.6-2.4l4.1-2.4-4.1-2.4c-.8-.5-1.1-1.6-.6-2.4l.8-1.3c.3-.5.9-.9 1.5-.9.3 0 .6.1.9.2l4.1 2.4V81c0-1.1.9-2 2-2h1c1.1 0 2 .9 2 2v4.6l4.1-2.4c.3-.2.6-.2.9-.2.6 0 1.2.3 1.5.9l.8 1.3c.5.8.2 1.9-.6 2.4l-4.1 2.4 4.1 2.4c.8.5 1.1 1.6.6 2.4l-.8 1.3c-.3.6-.9.9-1.5.9-.3 0-.6-.1-.9-.2l-4.1-2.4V99c0 1.1-.9 2-2 2zm-36.2 0h-1c-1.1 0-2-.9-2-2v-4.6l-4.1 2.4c-.3.2-.6.2-.9.2-.6 0-1.2-.3-1.5-.9l-.8-1.3c-.5-.8-.2-1.9.6-2.4l4.1-2.4-4.1-2.4c-.8-.5-1.1-1.6-.6-2.4l.8-1.3c.3-.6.9-.9 1.5-.9.3 0 .6.1.9.2l4.1 2.4V81c0-1.1.9-2 2-2h1c1.1 0 2 .9 2 2v4.6l4.1-2.4c.3-.2.6-.2.9-.2.6 0 1.2.3 1.5.9l.8 1.3c.5.8.2 1.9-.6 2.4l-4.1 2.4 4.1 2.4c.8.5 1.1 1.6.6 2.4l-.8 1.3c-.3.5-.9.9-1.5.9-.3 0-.6-.1-.9-.2l-4.1-2.4V99c0 1.1-.9 2-2 2zm-36.3 0h-1c-1.1 0-2-.9-2-2v-4.6l-4.1 2.4c-.3.2-.6.2-.9.2-.6 0-1.2-.3-1.5-.9l-.8-1.3c-.5-.8-.2-1.9.6-2.4L122 90l-4.1-2.4c-.8-.5-1.1-1.6-.6-2.4l.8-1.3c.3-.5.9-.9 1.5-.9.3 0 .6.1.9.2l4.1 2.4V81c0-1.1.9-2 2-2h1c1.1 0 2 .9 2 2v4.6l4.1-2.4c.3-.2.6-.2.9-.2.6 0 1.2.3 1.5.9l.8 1.3c.5.8.2 1.9-.6 2.4l-4.1 2.4 4.1 2.4c.8.5 1.1 1.6.6 2.4l-.8 1.3c-.3.5-.9.9-1.5.9-.3 0-.6-.1-.9-.2l-4.1-2.4V99c0 1.1-.9 2-2 2z" fill="#ddf5f4"/><path d="M236.4 100c.6 0 1-.4 1-1v-6.3L243 96c.1.1.2.1.4.1.3 0 .5-.1.7-.4l.8-1.3c.2-.4.1-.8-.3-1.1L239 90l5.6-3.3c.4-.2.5-.7.3-1.1l-.8-1.3c-.1-.2-.4-.4-.7-.4-.1 0-.3 0-.4.1l-5.6 3.3V81c0-.6-.4-1-1-1h-1c-.6 0-1 .4-1 1v6.3l-5.6-3.3c-.1-.1-.2-.1-.4-.1-.3 0-.5.1-.7.4l-.8 1.3c-.2.4-.1.8.3 1.1l5.6 3.3-5.6 3.3c-.4.2-.5.7-.3 1.1l.8 1.3c.1.2.4.4.7.4.1 0 .3 0 .4-.1l5.6-3.3V99c0 .6.4 1 1 1h1m-36.3 0c.6 0 1-.4 1-1v-6.3l5.6 3.3c.1.1.2.1.4.1.3 0 .5-.1.7-.4l.8-1.3c.2-.4.1-.8-.3-1.1l-5.6-3.3 5.6-3.3c.4-.2.5-.7.3-1.1l-.8-1.3c-.1-.2-.4-.4-.7-.4-.1 0-.3 0-.4.1l-5.6 3.3V81c0-.6-.4-1-1-1h-1c-.6 0-1 .4-1 1v6.3l-5.6-3.3c-.1-.1-.2-.1-.4-.1-.3 0-.5.1-.7.4l-.8 1.3c-.2.4-.1.8.3 1.1l5.6 3.3-5.6 3.3c-.4.2-.5.7-.3 1.1l.8 1.3c.1.2.4.4.7.4.1 0 .3 0 .4-.1l5.6-3.3V99c0 .6.4 1 1 1h1m-36.2 0c.6 0 1-.4 1-1v-6.3l5.6 3.3c.1.1.2.1.4.1.3 0 .5-.1.7-.4l.8-1.3c.2-.4.1-.8-.3-1.1l-5.6-3.3 5.6-3.3c.4-.2.5-.7.3-1.1l-.8-1.3c-.1-.2-.4-.4-.7-.4-.1 0-.3 0-.4.1l-5.6 3.3V81c0-.6-.4-1-1-1h-1c-.6 0-1 .4-1 1v6.3l-5.6-3.3c-.1-.1-.2-.1-.4-.1-.3 0-.5.1-.7.4l-.8 1.3c-.2.4-.1.8.3 1.1l5.6 3.3-5.6 3.3c-.4.2-.5.7-.3 1.1l.8 1.3c.1.2.4.4.7.4.1 0 .3 0 .4-.1l5.6-3.3V99c0 .6.4 1 1 1h1m-36.3 0c.6 0 1-.4 1-1v-6.3l5.6 3.3c.1.1.2.1.4.1.3 0 .5-.1.7-.4l.8-1.3c.2-.4.1-.8-.3-1.1l-5.6-3.3 5.6-3.3c.4-.2.5-.7.3-1.1l-.8-1.3c-.1-.2-.4-.4-.7-.4-.1 0-.3 0-.4.1l-5.6 3.3V81c0-.6-.4-1-1-1h-1c-.6 0-1 .4-1 1v6.3L120 84c-.1-.1-.2-.1-.4-.1-.3 0-.5.1-.7.4l-.8 1.3c-.2.4-.1.8.3 1.1L124 90l-5.6 3.3c-.4.2-.5.7-.3 1.1l.8 1.3c.1.2.4.4.7.4.1 0 .3 0 .4-.1l5.6-3.3V99c0 .6.4 1 1 1h1m108.8 2h-1c-1.7 0-3-1.3-3-3v-2.8l-2.6 1.5c-.4.2-.9.4-1.4.4-1 0-1.9-.5-2.4-1.4l-.8-1.3c-.7-1.3-.3-3 1-3.8l2.7-1.6-2.7-1.6c-1.3-.8-1.7-2.4-1-3.8l.8-1.3c.5-.9 1.4-1.4 2.4-1.4.5 0 1 .1 1.4.4l2.6 1.5V81c0-1.7 1.3-3 3-3h1c1.7 0 3 1.3 3 3v2.8l2.6-1.5c.4-.2.9-.4 1.4-.4 1 0 1.9.5 2.4 1.4l.8 1.3c.7 1.3.3 3-1 3.8l-2.7 1.6 2.7 1.6c1.3.8 1.7 2.5 1 3.8l-.8 1.3c-.5.9-1.4 1.4-2.4 1.4-.5 0-1-.1-1.4-.4l-2.6-1.5V99c0 1.7-1.3 3-3 3zm-36.3 0h-1c-1.7 0-3-1.3-3-3v-2.8l-2.6 1.5c-.4.2-.9.4-1.4.4-1 0-1.9-.5-2.4-1.4l-.8-1.3c-.7-1.3-.3-3 1-3.8l2.7-1.6-2.7-1.6c-1.3-.8-1.7-2.4-1-3.8l.8-1.3c.5-.9 1.4-1.4 2.4-1.4.5 0 1 .1 1.4.4l2.6 1.5V81c0-1.7 1.3-3 3-3h1c1.7 0 3 1.3 3 3v2.8l2.6-1.5c.4-.2.9-.4 1.4-.4 1 0 1.9.5 2.4 1.4l.8 1.3c.7 1.3.3 3-1 3.8l-2.7 1.6 2.7 1.6c1.3.8 1.7 2.5 1 3.8l-.8 1.3c-.5.9-1.4 1.4-2.4 1.4-.5 0-1-.1-1.4-.4l-2.6-1.5V99c0 1.7-1.3 3-3 3zm-36.2 0h-1c-1.7 0-3-1.3-3-3v-2.8l-2.6 1.5c-.4.2-.9.4-1.4.4-1 0-1.9-.5-2.4-1.4l-.8-1.3c-.7-1.3-.3-3 1-3.8l2.7-1.6-2.7-1.6c-1.3-.8-1.7-2.5-1-3.8l.8-1.3c.5-.9 1.4-1.4 2.4-1.4.5 0 1 .1 1.4.4l2.6 1.5V81c0-1.7 1.3-3 3-3h1c1.7 0 3 1.3 3 3v2.8l2.6-1.5c.4-.2.9-.4 1.4-.4 1 0 1.9.5 2.4 1.4l.8 1.3c.7 1.3.3 3-1 3.8l-2.7 1.6 2.7 1.6c1.3.8 1.7 2.4 1 3.8l-.8 1.3c-.5.9-1.4 1.4-2.4 1.4-.5 0-1-.1-1.4-.4l-2.6-1.5V99c0 1.7-1.4 3-3 3zm-36.3 0h-1c-1.7 0-3-1.3-3-3v-2.8l-2.6 1.5c-.4.2-.9.4-1.4.4-1 0-1.9-.5-2.4-1.4l-.8-1.3c-.7-1.3-.3-3 1-3.8l2.7-1.6-2.7-1.6c-1.3-.8-1.7-2.5-1-3.8l.8-1.3c.5-.9 1.4-1.4 2.4-1.4.5 0 1 .1 1.4.4l2.6 1.5V81c0-1.7 1.3-3 3-3h1c1.7 0 3 1.3 3 3v2.8l2.6-1.5c.4-.2.9-.4 1.4-.4 1 0 1.9.5 2.4 1.4l.8 1.3c.7 1.3.3 3-1 3.8l-2.7 1.6 2.7 1.6c1.3.8 1.7 2.4 1 3.8l-.8 1.3c-.5.9-1.4 1.4-2.4 1.4-.5 0-1-.1-1.4-.4l-2.6-1.5V99c0 1.7-1.3 3-3 3z" fill="#00b2aa"/><path d="M175.4 125H67c-5.5 0-10-4.5-10-10V65c0-5.5 4.5-10 10-10h218.8m18.4 0H328c5.5 0 10 4.5 10 10v50c0 5.5-4.5 10-10 10h-42.1" fill="none" stroke="#dbdee5" stroke-width="2" stroke-linecap="round"/><path d="M177.6 111.3c8.6 18.7 24.6 35.2 54.1 45.4 1.2.4 2.4.4 3.6 0 65.4-22.7 64.4-76.3 63.6-115.5-.1-4.2-.2-8.2-.2-12 0-3-2.4-5.5-5.5-5.5h0c-23.4 0-41.1-6.7-56-21.1-2.1-2.1-5.5-2.1-7.6 0-14.8 14.4-32.6 21.1-56 21.1-3 0-5.5 2.4-5.5 5.5 0 3.8-.1 9.8-.2 14" fill="none" stroke="#dbdee5" stroke-width="2"/><path d="M182.1 96.1c5.7 20.7 19.2 39.8 50.4 50.7 1 .3 2.1.3 3.1 0 55.9-19.5 55-65.6 54.3-99.2-.1-3.6-.1-7-.1-10.3 0-2.6-2.1-4.7-4.7-4.7h0c-20 0-35.2-5.8-47.8-18.1-1.8-1.8-4.7-1.8-6.5 0-12.7 12.4-27.9 18.1-47.8 18.1-2.6 0-4.7 2.1-4.7 4.7h0c0 3.3-.1 1.7-.1 5.3" fill="none" stroke="#212225" stroke-width="2" stroke-linecap="round"/></svg>