<svg xmlns="http://www.w3.org/2000/svg" width="269" height="94"><path fill="none" stroke="#DBDEE5" stroke-width="2" stroke-linecap="round" stroke-linejoin="round" d="M239.3 91.7c-1.4.1-2.8.2-4.2.1m28.6-18.1c-.2.5-.7 1.5-.9 1.9-3.7 8-11.2 13.7-20.4 15.6"/><path fill="none" stroke="#DBDEE5" stroke-width="2" stroke-linecap="round" stroke-linejoin="round" d="M257.9 75.6l5.9-1.8 2.4 5.7M57 1h153M57 92h153"/><path fill="none" stroke="#DBDEE5" stroke-width="2" stroke-linecap="round" stroke-linejoin="round" stroke-dasharray="4,4" d="M205.8 1h60.1M7 1h60.1M5 92h60.1M209 92h22"/><path fill="none" stroke="#212225" stroke-width="2" stroke-linecap="round" stroke-dasharray="4,4" d="M125.1 24H74.9c-1 0-1.9 1.8-1.9 4v36c0 2.2.8 4 1.9 4h50.2c1 0 1.9-1.8 1.9-4V28c0-2.2-.8-4-1.9-4z"/><path fill="none" stroke="#212225" stroke-width="2" stroke-linecap="round" stroke-linejoin="round" d="M106.1 39h-2.3c-.8 0-1.6.3-2.1.9-.6.6-.9 1.3-.9 2.1v6.8"/><path fill="none" stroke="#212225" stroke-width="2" stroke-linecap="round" stroke-linejoin="round" d="M104.5 45l-3.8 3.8L97 45m10.8 4v1.5c0 .8-.3 1.6-.9 2.1-.6.6-1.3.9-2.1.9h-8.5c-.8 0-1.6-.3-2.1-.9s-.9-1.3-.9-2.1V49"/><path fill="none" stroke="#212225" stroke-width="2" stroke-linecap="round" stroke-dasharray="4,4" d="M191.1 24h-50.2c-1 0-1.9 1.8-1.9 4v36c0 2.2.8 4 1.9 4h50.2c1 0 1.9-1.8 1.9-4V28c0-2.2-.8-4-1.9-4z"/><path fill="none" stroke="#000" stroke-width="2" stroke-linecap="round" d="M166 53V39m-7 7h14"/></svg>