<svg xmlns="http://www.w3.org/2000/svg" xmlns:xlink="http://www.w3.org/1999/xlink" viewBox="0 0 85 86"><defs><path id="a" d="M0 0h84.5v86H0z"/></defs><clipPath id="b"><use xlink:href="#a" overflow="visible"/></clipPath><g clip-path="url(#b)" stroke-width="2"><path d="M43 70c-4.3 0-8.6-1-12.4-3s-7.2-4.9-9.6-8.4-4.1-7.6-4.7-11.9c-.6-4.3-.1-8.7 1.4-12.7 1.5-4.1 3.9-7.7 7.1-10.7s7-5.1 11.2-6.2c4.2-1.1 8.6-1.3 12.8-.4 4.2.9 8.2 2.8 11.5 5.6l.1.1c1.6 1.2 2.6.6 3.7-.3 1.1-.9 6.1-6.2 7-7 .2-.2.4-.5.5-.8s.2-.6.2-.9c0-.3-.1-.6-.2-.9-.1-.3-.3-.5-.6-.7-5.6-5-12.5-8.4-19.8-9.8-7.4-1.4-15-.9-22.1 1.6s-13.4 6.9-18.2 12.6c-4.8 5.8-8 12.7-9.2 20.1-1.2 7.4-.4 15 2.3 22 2.7 7 7.3 13.1 13.2 17.8 5.9 4.6 12.9 7.6 20.4 8.6 7.4 1 15 0 21.9-3 .7-.3 1.3-1.9-.4-3.7-1.7-1.8-7.2-7.2-8-8-.8-.8-17.3-17.1-19.5-21.1-1.6-2.9-2-6.4-1.1-9.6.9-3.2 3-6 5.9-7.6 2.9-1.7 6.3-2.1 9.6-1.3 3.2.8 6 2.9 7.8 5.8" fill="none" stroke="#212225" stroke-linecap="round"/><path d="M72.5 39h-29C41 39 39 41 39 43.5s2 4.5 4.5 4.5h29c2.5 0 4.5-2 4.5-4.5S75 39 72.5 39z" fill="#ddf5f4" stroke="#04958e"/><path d="M76.2 20.7c6 8.4 8.5 18.9 6.8 29.2-1.7 10.2-7.4 19.4-15.8 25.4" fill="none" stroke="#dde0e6" stroke-linecap="round"/><path d="M43 80.1c1.7 0 3.1-1.4 3.1-3.1 0-1.7-1.4-3.1-3.1-3.1-1.7 0-3.1 1.4-3.1 3.1 0 1.7 1.4 3.1 3.1 3.1zm-24-10c1.7 0 3.1-1.4 3.1-3.1 0-1.7-1.4-3.1-3.1-3.1s-3.1 1.4-3.1 3.1c0 1.7 1.4 3.1 3.1 3.1zm-10-23c1.7 0 3.1-1.4 3.1-3.1 0-1.7-1.4-3.1-3.1-3.1-1.7 0-3.1 1.4-3.1 3.1 0 1.7 1.4 3.1 3.1 3.1zm10-25c1.7 0 3.1-1.4 3.1-3.1 0-1.7-1.4-3.1-3.1-3.1s-3.1 1.4-3.1 3.1c0 1.7 1.4 3.1 3.1 3.1zm24-10c1.7 0 3.1-1.4 3.1-3.1 0-1.7-1.4-3.1-3.1-3.1-1.7 0-3.1 1.4-3.1 3.1 0 1.7 1.4 3.1 3.1 3.1z" fill="none" stroke="#dde0e6"/><path d="M22 43c0-4 1.2-8 3.3-11.4 2.2-3.4 5.3-6.1 8.9-7.9C37.9 22 42 21.3 46 21.9c4 .5 7.8 2.1 10.9 4.7l.1.1" fill="none" stroke="#04958e" stroke-linecap="round"/></g></svg>